<svg width="22" height="15" viewBox="0 0 22 15" fill="none" xmlns="http://www.w3.org/2000/svg">
<path d="M21.9999 14.9998H0V8.86917e-05H21.9999V14.9998Z" fill="#F0F0F0"/>
<path d="M12.3749 15.0002H9.62494V8.90672H0V6.09432H9.62494V0.000798225H12.3749V6.09432H21.9999V8.90672H12.3749V15.0002Z" fill="#D80027"/>
<path d="M16.9203 4.89185L21.9998 2.00579V4.89185H16.9203Z" fill="#0052B4"/>
<path d="M13.392 4.89185L22.0006 0.00071907V1.38381L15.8263 4.89185H13.392Z" fill="#0052B4"/>
<path d="M19.7068 0.000723839L13.3912 3.58936V0.000723839H19.7068Z" fill="#0052B4"/>
<path d="M13.3915 4.89185L22.0001 0.00071907V1.38381L15.8259 4.89185H13.3915Z" fill="#F0F0F0"/>
<path d="M13.3915 4.89185L22.0001 0.00071907V1.38381L15.8259 4.89185H13.3915Z" fill="#D80027"/>
<path d="M3.88182 4.89185L0 2.6863V4.89185H3.88182Z" fill="#0052B4"/>
<path d="M8.60844 4.27002V0.000829697H1.09509L8.60844 4.27002Z" fill="#0052B4"/>
<path d="M6.17427 4.89185L0 1.38381V0.00071907L8.60865 4.89185H6.17427Z" fill="#D80027"/>
<path d="M5.07952 10.1091L0 12.9951V10.1091H5.07952Z" fill="#0052B4"/>
<path d="M8.60865 10.1091L0 15.0002V13.6172L6.17427 10.1091H8.60865Z" fill="#0052B4"/>
<path d="M2.29321 15.0002L8.60881 11.4116V15.0002H2.29321Z" fill="#0052B4"/>
<path d="M8.60865 10.1091L0 15.0002V13.6172L6.17427 10.1091H8.60865Z" fill="#F0F0F0"/>
<path d="M8.60865 10.1091L0 15.0002V13.6172L6.17427 10.1091H8.60865Z" fill="#D80027"/>
<path d="M18.1179 10.1089L21.9997 12.3145V10.1089H18.1179Z" fill="#0052B4"/>
<path d="M13.3915 10.7311V15.0002H20.9048L13.3915 10.7311Z" fill="#0052B4"/>
<path d="M15.8259 10.1091L22.0001 13.6172V15.0002L13.3915 10.1091H15.8259Z" fill="#D80027"/>
</svg>
