<svg width="22" height="15" viewBox="0 0 22 15" fill="none" xmlns="http://www.w3.org/2000/svg">
<path d="M21.0936 0H0.906385C0.405797 0 0 0.430143 0 0.960765V14.0392C0 14.5699 0.405797 15 0.906385 15H21.0936C21.5942 15 22 14.5699 22 14.0392V0.960765C22 0.430143 21.5942 0 21.0936 0ZM0.906385 0.754527H21.0936C21.1788 0.754967 21.2538 0.814072 21.2787 0.900402L11 7.70624L0.721311 0.900402C0.746225 0.814072 0.821204 0.754967 0.906385 0.754527ZM0.711821 1.76056L8.10526 6.65493L0.711821 12.8722V1.76056ZM21.2882 14.0342C21.2882 14.1481 21.201 14.2404 21.0936 14.2404H0.906385C0.798959 14.2404 0.711821 14.1481 0.711821 14.0342V13.833L8.7459 7.10262L10.8102 8.47083C10.9261 8.54835 11.0739 8.54835 11.1898 8.47083L13.2541 7.10262L21.2882 13.833V14.0342ZM21.2882 12.8722L13.8758 6.67505L21.2882 1.80583V12.8722Z" fill="#EE8D77"/>
</svg>
