<svg width="17" height="16" viewBox="0 0 17 16" fill="none" xmlns="http://www.w3.org/2000/svg">
<path d="M0.300271 7.67194L4.21742 9.25234L5.73359 14.5232C5.8306 14.8608 6.21248 14.9856 6.46595 14.7616L8.64943 12.8374C8.87831 12.6358 9.20432 12.6258 9.44351 12.8134L13.3817 15.9042C13.6529 16.1173 14.037 15.9567 14.105 15.6025L16.99 0.601498C17.0642 0.214607 16.7125 -0.108149 16.3718 0.0343316L0.295681 6.73822C-0.101043 6.90361 -0.0975866 7.51078 0.300271 7.67194ZM5.48924 8.41105L13.1448 3.31415C13.2824 3.22282 13.4239 3.42392 13.3058 3.54239L6.98774 9.89093C6.76566 10.1144 6.62241 10.4134 6.58184 10.738L6.36662 12.4621C6.33811 12.6923 6.03897 12.7152 5.9802 12.4924L5.15247 9.34845C5.05767 8.98986 5.19582 8.60683 5.48924 8.41105Z" fill="#82ACA2"/>
</svg>
