<svg width="90" height="86" viewBox="0 0 90 86" fill="none" xmlns="http://www.w3.org/2000/svg">
<path d="M9.01474 21.876C8.77768 21.6645 8.61025 21.3955 8.53173 21.1C8.45321 20.8046 8.46681 20.4947 8.57095 20.206C8.66832 19.9166 8.85321 19.6588 9.10391 19.4629C9.35461 19.267 9.66072 19.1412 9.98629 19.1001L14.952 18.4254L17.2309 14.2559C17.3734 13.9835 17.5966 13.7538 17.8746 13.5934C18.1526 13.4329 18.4742 13.3482 18.8022 13.349C19.1322 13.3461 19.4564 13.4298 19.7367 13.5904C20.0171 13.751 20.2421 13.9818 20.3855 14.2559L22.6044 18.3922L27.5582 19.0558C27.8834 19.1012 28.1888 19.2284 28.4406 19.4236C28.6925 19.6187 28.881 19.8742 28.9855 20.1618C29.0868 20.4507 29.0989 20.7599 29.0206 21.0548C28.9422 21.3498 28.7764 21.6188 28.5417 21.8318L24.9434 25.0612L25.795 29.6067C25.863 29.9101 25.8356 30.2251 25.716 30.5146C25.5964 30.8041 25.3895 31.0561 25.1198 31.2409C24.8502 31.4256 24.5288 31.5355 24.1937 31.5575C23.8585 31.5796 23.5236 31.5128 23.2282 31.3652L18.7902 29.2196L14.3523 31.3652C14.1027 31.4921 13.8216 31.5568 13.5366 31.5532C13.1655 31.5556 12.8036 31.447 12.5051 31.2436C12.2374 31.0658 12.0291 30.8222 11.904 30.5407C11.7789 30.2592 11.742 29.9509 11.7975 29.651L12.6491 25.0944L9.01474 21.876ZM38.677 25.1055L37.8254 29.651C37.7701 29.9496 37.8065 30.2565 37.9303 30.537C38.054 30.8176 38.2604 31.0607 38.526 31.239C38.7916 31.4172 39.106 31.5234 39.4336 31.5458C39.7612 31.5681 40.0891 31.5055 40.3802 31.3652L44.8181 29.2196L49.2561 31.3652C49.5452 31.5074 49.8719 31.5715 50.1987 31.5499C50.5255 31.5284 50.839 31.4222 51.1032 31.2436C51.371 31.0658 51.5793 30.8222 51.7044 30.5407C51.8295 30.2592 51.8664 29.9509 51.8109 29.651L50.9593 25.0944L54.5576 21.876C54.7968 21.6657 54.9665 21.3972 55.0471 21.1017C55.1278 20.8062 55.1161 20.4957 55.0134 20.206C54.9089 19.9184 54.7204 19.663 54.4686 19.4678C54.2167 19.2727 53.9113 19.1454 53.5861 19.1001L48.6324 18.4365L46.4014 14.2559C46.2502 13.9909 46.0221 13.7699 45.7425 13.6175C45.4629 13.4652 45.1429 13.3875 44.8181 13.3933C44.4898 13.3911 44.1677 13.4753 43.8894 13.6359C43.6111 13.7965 43.3882 14.0269 43.2469 14.3002L41.0279 18.4365L36.0622 19.1111C35.7364 19.1528 35.4298 19.2782 35.1777 19.473C34.9256 19.6679 34.7381 19.9243 34.6367 20.2128C34.5353 20.5014 34.5241 20.8104 34.6044 21.1046C34.6847 21.3987 34.8532 21.6661 35.0907 21.876L38.677 25.1055ZM61.1546 21.876C60.9169 21.6654 60.7485 21.3971 60.6688 21.1022C60.5891 20.8072 60.6013 20.4974 60.7041 20.2086C60.8068 19.9197 60.9959 19.6635 61.2496 19.4694C61.5033 19.2752 61.8113 19.151 62.1381 19.1111L67.0918 18.4365L69.3108 14.2559C69.4542 13.9818 69.6792 13.751 69.9595 13.5904C70.2399 13.4298 70.564 13.3461 70.8941 13.349C71.2224 13.3469 71.5445 13.431 71.8228 13.5916C72.1011 13.7523 72.324 13.9827 72.4653 14.2559L74.6843 18.3922L79.65 19.0558C79.9741 19.1007 80.2782 19.2279 80.5282 19.4233C80.7782 19.6186 80.9642 19.8744 81.0654 20.1618C81.1724 20.4501 81.1875 20.7607 81.1089 21.0568C81.0302 21.3528 80.8611 21.6218 80.6216 21.8318L77.0232 25.0612L77.8748 29.6067C77.9438 29.9102 77.9172 30.2256 77.7982 30.5156C77.6792 30.8056 77.4727 31.0582 77.2031 31.2436C76.9047 31.447 76.5427 31.5556 76.1716 31.5532C75.8867 31.5568 75.6056 31.4921 75.356 31.3652L70.9181 29.2196L66.4081 31.3652C66.117 31.5055 65.7891 31.5681 65.4615 31.5458C65.1339 31.5234 64.8196 31.4172 64.5539 31.239C64.2883 31.0607 64.082 30.8176 63.9582 30.537C63.8344 30.2565 63.7981 29.9496 63.8533 29.651L64.7049 25.1055L61.1546 21.876ZM70.8941 26.9303C71.179 26.9267 71.4601 26.9915 71.7097 27.1183L75.308 28.8547L74.6243 25.1718C74.5779 24.9125 74.5993 24.6467 74.687 24.3966C74.7746 24.1464 74.9259 23.9193 75.1281 23.7341L78.0308 21.124L74.0246 20.582C73.7422 20.5434 73.4739 20.4428 73.2423 20.2889C73.0106 20.135 72.8224 19.9321 72.6932 19.6973L70.9061 16.3794L70.8941 26.9303ZM89.5454 1.10597V48.0543C89.5304 50.8246 88.9779 53.5701 87.9142 56.161V80.6139C87.9142 80.9073 87.7878 81.1886 87.5629 81.396C87.3379 81.6034 87.0328 81.7199 86.7147 81.7199H85.2034V84.894C85.2034 85.1874 85.0771 85.4687 84.8521 85.6761C84.6272 85.8835 84.3221 86 84.004 86H5.63231C5.3142 86 5.00912 85.8835 4.78418 85.6761C4.55924 85.4687 4.43287 85.1874 4.43287 84.894V81.7199H2.92157C2.60346 81.7199 2.29837 81.6034 2.07343 81.396C1.84849 81.1886 1.72212 80.9073 1.72212 80.6139V77.2297H1.29033C0.972213 77.2297 0.66713 77.1132 0.442191 76.9058C0.217251 76.6983 0.0908813 76.417 0.0908813 76.1237V1.10597C0.0908813 0.812646 0.217251 0.53134 0.442191 0.32393C0.66713 0.116521 0.972213 0 1.29033 0H88.346C88.6641 0 88.9692 0.116521 89.1941 0.32393C89.4191 0.53134 89.5454 0.812646 89.5454 1.10597ZM82.8045 81.7199H6.83176V83.7881H82.8045V81.7199ZM85.5153 60.7839C80.9814 67.8953 73.7367 73.0491 69.8506 75.4601C68.0153 76.6017 65.8513 77.2103 63.6374 77.2076H4.12101V79.508H85.5153V60.7839ZM68.2553 73.7901L68.5192 73.6463C72.8132 70.9699 81.4852 64.7986 85.3114 56.3158C80.8208 58.8193 75.6616 60.1178 70.4143 60.0651C70.5582 62.6973 70.6182 68.7137 68.2553 73.7901ZM87.1465 2.21193H2.48977V75.0177H63.6614C64.0909 75.0162 64.5198 74.9866 64.9448 74.9293C69.0949 68.8465 67.8955 59.125 67.8835 59.0255C67.8607 58.8597 67.8789 58.6913 67.9368 58.533C67.9946 58.3747 68.0907 58.2305 68.2176 58.1113C68.3446 57.9921 68.4992 57.901 68.6698 57.8448C68.8405 57.7886 69.0227 57.7687 69.2029 57.7868C78.4026 58.6716 86.2589 53.1085 86.4868 52.9648C86.9208 51.3622 87.1423 49.7171 87.1465 48.0653V2.21193ZM9.67444 45.6543H61.8263C62.1444 45.6543 62.4495 45.5378 62.6744 45.3304C62.8993 45.123 63.0257 44.8417 63.0257 44.5484C63.0257 44.255 62.8993 43.9737 62.6744 43.7663C62.4495 43.5589 62.1444 43.4424 61.8263 43.4424H9.67444C9.35633 43.4424 9.05124 43.5589 8.8263 43.7663C8.60137 43.9737 8.475 44.255 8.475 44.5484C8.475 44.8417 8.60137 45.123 8.8263 45.3304C9.05124 45.5378 9.35633 45.6543 9.67444 45.6543ZM9.67444 54.5021H49.7599C50.078 54.5021 50.3831 54.3855 50.608 54.1781C50.8329 53.9707 50.9593 53.6894 50.9593 53.3961C50.9593 53.1028 50.8329 52.8215 50.608 52.6141C50.3831 52.4066 50.078 52.2901 49.7599 52.2901H9.67444C9.35633 52.2901 9.05124 52.4066 8.8263 52.6141C8.60137 52.8215 8.475 53.1028 8.475 53.3961C8.475 53.6894 8.60137 53.9707 8.8263 54.1781C9.05124 54.3855 9.35633 54.5021 9.67444 54.5021ZM9.67444 63.8696H41.3158C41.6339 63.8696 41.939 63.7531 42.1639 63.5457C42.3888 63.3383 42.5152 63.0569 42.5152 62.7636C42.5152 62.4703 42.3888 62.189 42.1639 61.9816C41.939 61.7742 41.6339 61.6577 41.3158 61.6577H9.67444C9.35633 61.6577 9.05124 61.7742 8.8263 61.9816C8.60137 62.189 8.475 62.4703 8.475 62.7636C8.475 63.0569 8.60137 63.3383 8.8263 63.5457C9.05124 63.7531 9.35633 63.8696 9.67444 63.8696Z" fill="#352728"/>
</svg>
