<svg width="95" height="74" viewBox="0 0 95 74" fill="none" xmlns="http://www.w3.org/2000/svg">
<path d="M90.1288 70.5H90.6288V70V26V25.5H90.1288H4.14386H3.64386V26V70V70.5H4.14386H90.1288ZM90.1288 22.5H90.6288V22V4V3.5H90.1288H4.14386H3.64386V4V22V22.5H4.14386H90.1288ZM0.5 0.5H93.7727V73.5H0.5V0.5Z" fill="#352728" stroke="white"/>
<path d="M32.6508 13C32.6508 15.4688 30.5724 17.5 27.971 17.5C25.3696 17.5 23.2912 15.4688 23.2912 13C23.2912 10.5312 25.3696 8.5 27.971 8.5C30.5724 8.5 32.6508 10.5312 32.6508 13Z" fill="#352728" stroke="white"/>
<path d="M46.1183 13C46.1183 15.4688 44.0399 17.5 41.4385 17.5C38.8371 17.5 36.7587 15.4688 36.7587 13C36.7587 10.5312 38.8371 8.5 41.4385 8.5C44.0399 8.5 46.1183 10.5312 46.1183 13Z" fill="#352728" stroke="white"/>
<path d="M19.1833 13C19.1833 15.4688 17.1048 17.5 14.5035 17.5C11.9021 17.5 9.82364 15.4688 9.82364 13C9.82364 10.5312 11.9021 8.5 14.5035 8.5C17.1048 8.5 19.1833 10.5312 19.1833 13Z" fill="#352728" stroke="white"/>
<path d="M46.8914 54.8712L46.4417 54.356L46.0872 54.9408L40.9742 63.376L31.4668 31.4424L62.2961 46.3219L52.6717 49.6271L51.9684 49.8686L52.4575 50.4288L59.8854 58.9373L54.3448 63.4088L46.8914 54.8712Z" fill="#352728" stroke="white"/>
</svg>
