<svg width="100" height="64" viewBox="0 0 100 64" fill="none" xmlns="http://www.w3.org/2000/svg">
<path d="M71.5165 33.8741L71.3673 34.0101L71.5405 34.1137C73.6108 35.3518 74.8998 37.5303 74.8998 39.8195C74.8998 40.5059 74.2543 41.1132 73.4657 41.1132H61.0566C60.2765 41.1132 59.6885 40.5139 59.6885 39.8195C59.6885 37.53 60.9118 35.4114 63.0487 34.1132L63.2248 34.0061L63.0688 33.8714C61.846 32.8157 61.2066 31.4128 61.2066 29.9549C61.2066 26.9237 63.9632 24.4508 67.2611 24.4508C70.624 24.4508 73.3157 26.9227 73.3157 29.9549C73.3157 31.4135 72.6757 32.8177 71.5165 33.8741ZM84.6387 8V7.85H84.4887H16.2387H16.0887V8V50.406V50.556H16.2387H84.4887H84.6387V50.406V8ZM6.93184 55.6688H7.08184V55.5188V7.09774C7.08184 3.28362 10.4996 0.15 14.7205 0.15H86.0728C90.2269 0.15 93.6455 3.28283 93.6455 7.09774V55.5188V55.6688H93.7955H98.4819C99.262 55.6688 99.85 56.2681 99.85 56.9624V59.7895C99.85 61.9795 97.8184 63.85 95.3796 63.85H5.41371C2.90747 63.85 0.877295 61.9782 0.877295 59.7895V56.9624C0.877295 56.2761 1.52278 55.6688 2.31143 55.6688H6.93184ZM9.88411 55.5188V55.6688H10.0341H90.6932H90.8432V55.5188V7.09774C90.8432 4.65754 88.6519 2.67707 86.0728 2.67707H14.7205C12.0769 2.67707 9.88411 4.65623 9.88411 7.09774V55.5188ZM97.0478 58.3459V58.1959H96.8978H3.82957H3.67957V58.3459V59.7895C3.67957 60.6748 4.49495 61.3229 5.41371 61.3229H95.3796C96.3071 61.3229 97.0478 60.6671 97.0478 59.7895V58.3459ZM42.3662 25.1514L42.3661 25.1516L42.3737 25.1556C42.716 25.3339 42.7431 25.8478 42.3648 26.0975L38.8706 28.0801L38.8704 28.0802C38.4261 28.3332 37.9066 28.0171 37.9066 27.609V23.5789C37.9066 23.3469 38.0441 23.1692 38.2478 23.0763C38.4536 22.9826 38.7156 22.9826 38.9352 23.1071C38.9356 23.1073 38.936 23.1076 38.9364 23.1078L42.3662 25.1514ZM45.1492 33.9553H44.8972L45.0173 34.1768L47.7896 39.2895L47.7895 39.2896L47.7927 39.2951C48.1339 39.865 47.8608 40.6159 47.1968 40.9473C46.4725 41.2759 45.6348 40.9974 45.2793 40.4065L41.7824 34.0331L41.7397 33.9553H41.6509H37.6245H37.5357L37.493 34.0331L33.9947 40.409L33.9946 40.409L33.992 40.4142C33.7035 40.9926 32.8725 41.279 32.1422 40.9462C31.4259 40.6198 31.1982 39.8705 31.4868 39.2879L34.3234 34.1781L34.4471 33.9553H34.1922H27.2616C26.473 33.9553 25.8275 33.348 25.8275 32.6617V18.5263C25.8275 17.8478 26.4642 17.2929 27.2616 17.2929H52.0798C52.8685 17.2929 53.4479 17.84 53.4479 18.5263V32.6617C53.4479 33.356 52.8599 33.9553 52.0798 33.9553H45.1492ZM28.6298 31.2782V31.4282H28.7798H50.4957H50.6457V31.2782V19.9699V19.8199H50.4957H28.7798H28.6298V19.9699V31.2782ZM62.7645 38.383L62.6876 38.5861H62.9048H71.6835H71.9007L71.8238 38.383C71.1382 36.571 69.2931 35.459 67.2611 35.459C65.2267 35.459 63.4493 36.5731 62.7645 38.383ZM14.7205 5.32293H86.0728C86.8615 5.32293 87.4409 5.87009 87.4409 6.55639V51.7895C87.4409 52.4838 86.8529 53.0831 86.0728 53.0831H14.7205C13.9319 53.0831 13.2864 52.4758 13.2864 51.7895V6.55639C13.2864 5.87783 13.9231 5.32293 14.7205 5.32293ZM67.2611 26.9778C65.4778 26.9778 64.0089 28.2332 64.0089 29.9549C64.0089 31.6144 65.4756 32.932 67.2611 32.932C69.0467 32.932 70.5134 31.6144 70.5134 29.9549C70.5134 28.2953 69.0467 26.9778 67.2611 26.9778Z" fill="#352728" stroke="white" stroke-width="0.3"/>
</svg>
